<?xml version="1.0" encoding="UTF-8"?><svg xmlns="http://www.w3.org/2000/svg" xmlns:xlink="http://www.w3.org/1999/xlink" version="1.1" id="Layer_1" x="0px" y="0px" viewBox="0 0 24 24" xml:space="preserve"><path id="base_color_37_" fill="#F47920" d="M12 24c-7-2.94-9-7-9-13V3l9-3 9 3v8c0 6-2 10.06-9 13z"/><g id="light_foil_4_" fill="#FFF"><path opacity="0.1" d="M12 0v7h2v3h3v2h3.978c.013-.328.022-.66.022-1V3l-9-3z"/><path opacity="0.1" d="M10 17v-3H7v-2H3.022c.223 5.461 2.375 9.227 8.978 12v-7h-2z"/><path opacity="0.8" d="M14 10V7h-4v3H7v4h3v3h4v-3h3v-4z"/></g><metadata><rdf:RDF xmlns:rdf="http://www.w3.org/1999/02/22-rdf-syntax-ns#" xmlns:rdfs="http://www.w3.org/2000/01/rdf-schema#" xmlns:dc="http://purl.org/dc/elements/1.1/"><rdf:Description about="https://iconscout.com/legal#licenses" dc:title="protect,medical,shield" dc:description="protect,medical,shield" dc:publisher="Iconscout" dc:date="2017-10-16" dc:format="image/svg+xml" dc:language="en"><dc:creator><rdf:Bag><rdf:li>Those Icons</rdf:li></rdf:Bag></dc:creator></rdf:Description></rdf:RDF></metadata></svg>