<?xml version="1.0" encoding="UTF-8"?><svg xmlns="http://www.w3.org/2000/svg" xmlns:xlink="http://www.w3.org/1999/xlink" version="1.1" id="Layer_1" x="0px" y="0px" viewBox="0 0 24 24" xml:space="preserve"><path id="base_color_28_" fill="#F47920" d="M24 9.611l-2.807-.467L20 6.5l-1.193 2.644L16 9.611l2.077 1.985-.769 2.904L20 13.075l2.692 1.425-.769-2.904L24 9.61zM13.923 5.096L16 3.11l-2.807-.467L12 0l-1.193 2.644L8 3.111l2.077 1.985L9.308 8 12 6.575 14.692 8l-.769-2.904zM4 13.075L6.692 14.5l-.769-2.904L8 9.61l-2.807-.467L4 6.5 2.807 9.144 0 9.611l2.077 1.985-.769 2.904L4 13.075zm4.193 5.57L7 16l-1.193 2.644L3 19.111l2.077 1.985L4.308 24 7 22.575 9.692 24l-.769-2.904L11 19.11l-2.807-.467zm10 0L17 16l-1.193 2.644-2.807.467 2.077 1.985L14.308 24 17 22.575 19.692 24l-.769-2.904L21 19.11l-2.807-.467z"/><metadata><rdf:RDF xmlns:rdf="http://www.w3.org/1999/02/22-rdf-syntax-ns#" xmlns:rdfs="http://www.w3.org/2000/01/rdf-schema#" xmlns:dc="http://purl.org/dc/elements/1.1/"><rdf:Description about="https://iconscout.com/legal#licenses" dc:title="awward,reward,stars,star,rating,five" dc:description="awward,reward,stars,star,rating,five" dc:publisher="Iconscout" dc:date="2017-11-06" dc:format="image/svg+xml" dc:language="en"><dc:creator><rdf:Bag><rdf:li>Those Icons</rdf:li></rdf:Bag></dc:creator></rdf:Description></rdf:RDF></metadata></svg>