<svg xmlns="http://www.w3.org/2000/svg" viewBox="0 0 32 32"><g data-name="24 hours"><circle cx="16" cy="16" r="9" fill="#ede7f6"/><path fill="#b39ddb" d="M15 14.3V14a3 3 0 0 0-6 0v1a1 1 0 0 0 2 0V14a1 1 0 0 1 2 0v.3a1 1 0 0 1-.22.62L9.22 19.38a1 1 0 0 0-.12 1.05A1 1 0 0 0 10 21h4a1 1 0 0 0 0-2H12.08l2.26-2.83A3 3 0 0 0 15 14.3zM22 11a1 1 0 0 0-1 1v3H19V12a1 1 0 0 0-2 0v4a1 1 0 0 0 1 1h3v3a1 1 0 0 0 2 0V12A1 1 0 0 0 22 11z"/><path fill="#b39ddb" d="M29.62,12.77a1,1,0,1,0-1.94.46A12.2,12.2,0,0,1,28,16a12,12,0,1,1-3.07-8H24a1,1,0,0,0,0,2h3a1,1,0,0,0,1-.92l.27-3.27a1,1,0,1,0-2-.16l-.06.79A14,14,0,1,0,30,16,13.86,13.86,0,0,0,29.62,12.77Z"/></g></svg>